<svg xmlns="http://www.w3.org/2000/svg" width="32" height="32" fill="none" viewBox="0 0 32 32">
  <path fill="#FC0" d="M9.67 24.659l.966.564c1.628.95 3.48 1.448 5.364 1.444A10.667 10.667 0 105.333 16c0 1.915.503 3.75 1.446 5.365l.562.966-.87 3.201 3.2-.873zm-6.998 4.674l1.803-6.624A13.272 13.272 0 012.667 16C2.667 8.636 8.636 2.667 16 2.667S29.333 8.636 29.333 16 23.364 29.333 16 29.333a13.272 13.272 0 01-6.707-1.806l-6.621 1.806zm8.516-19.589c.179-.013.359-.013.537-.005.072.005.144.013.216.021.212.024.446.153.524.332.398.901.784 1.81 1.158 2.72.082.203.033.463-.124.716a5.836 5.836 0 01-.351.496c-.15.193-.475.548-.475.548s-.132.157-.081.353c.019.075.08.183.136.274l.079.126c.341.57.8 1.147 1.36 1.691.16.155.316.313.484.461.624.551 1.33 1 2.093 1.334l.007.002c.113.05.17.076.336.147.082.035.168.065.254.088a.466.466 0 00.49-.173c.965-1.17 1.053-1.246 1.061-1.246v.003a.641.641 0 01.504-.17.69.69 0 01.236.054c.708.324 1.867.83 1.867.83l.776.347c.13.063.249.211.253.354.005.089.013.233-.017.497-.043.345-.147.76-.251.977a1.54 1.54 0 01-.28.403c-.135.141-.282.27-.44.384-.055.041-.11.081-.167.12a6.67 6.67 0 01-.51.293 2.651 2.651 0 01-1.111.307c-.247.013-.493.032-.741.019-.011 0-.758-.116-.758-.116a12.6 12.6 0 01-5.12-2.728c-.301-.266-.58-.551-.865-.835-1.187-1.18-2.083-2.453-2.627-3.656a4.627 4.627 0 01-.441-1.885c-.006-.81.26-1.598.752-2.24.097-.126.19-.256.348-.407.17-.16.276-.245.392-.304.154-.077.322-.123.495-.133l.001.001z"/>
</svg>
