<svg xmlns="http://www.w3.org/2000/svg" width="8" height="14" fill="none" viewBox="0 0 8 14">
  <path fill="#FC0" d="M4.48 11.299a2.29 2.29 0 00.45-1.29 1.72 1.72 0 00-.36-1.08c-.32-.4-.87-.92-1.46-1.58L.84 9.609c-1.71 1.74-.27 3.12-.27 3.12a2.11 2.11 0 002.47.6l1.44-2.03z"/>
  <path fill="#FC0" d="M5.32 11.459c.73-.63 2.68-2.45 2.68-4.59v-.39a3.83 3.83 0 00-1.3-2.79L4 .889s-1.94-2-3.49 0A2.24 2.24 0 000 2.279a2.64 2.64 0 00.86 1.86s1.47 1.45 2.73 2.74c.61.61 1.16 1.19 1.49 1.56.359.443.547 1 .53 1.57a3 3 0 01-.61 1.69l.29-.24"/>
</svg>
