<svg xmlns="http://www.w3.org/2000/svg" width="168" height="73" fill="none" viewBox="0 0 168 73">
  <path fill="#205875" d="M34.126 61V31.251h-16.92v2.75h-.14v27.77a8.69 8.69 0 008.54 8.83 8.7 8.7 0 008.55-8.83v-.73M78.674 61V31.251h-16.91v2.75h-.15v27.77a8.551 8.551 0 1017.09 0v-.73"/>
  <path fill="#0086CD" d="M34.657 9.102a9 9 0 01-8.8 9.08 8.94 8.94 0 01-8.79-9.08 8.94 8.94 0 018.79-9.1 9 9 0 018.8 9.09M79.204 9.102a8.8 8.8 0 11-17.59 0 8.801 8.801 0 0117.008-3.457 8.8 8.8 0 01.582 3.457"/>
  <path fill="#2C749A" d="M25.187 37.142l10.26 10.37s13.899 14.29 29.378-4.45c0 0-5.45 3.18-13.55-4l-8.889-8.56s-6.1-3.86-10.63.43l-6.57 6.21zM93.304 35.782l-5.68-5.91c-1.37-.82-6.4-3-13.69 3.94l-3.21 3.29 11.3 12c6.56 6.78 11.75 1.07 11.75 1.07 6.83-6.61-.47-14.35-.47-14.35"/>
  <path fill="#0086CD" d="M47.795 35.711l12.28-11.39s11-10.889 24.629 2.71l4.28 4.22s-6-4.57-14.63 2.89l-9.5 8.92s-5.28 3.79-13.55-4l-3.509-3.35zM13.866 25.502l-10.56 10.68s-7.44 7.68 0 13.83c0 0 5.63 5.34 12.31-1.38 0 0 11.93-12.77 16.19-16.72 2.3-2.14 7.29-3.53 12.29.18 0 0-8.35-11.55-18.19-11.89-2.92-.11-6.13-.4-12 5.3"/>
  <path fill="#205875" d="M115.813 8.072v2.53c.011.274-.023.548-.1.81-.063.208-.18.394-.34.54a3.1 3.1 0 01-.65.47 9.58 9.58 0 01-2.2.95 8.347 8.347 0 01-2.29.3 7.257 7.257 0 01-2.65-.47 5.596 5.596 0 01-2-1.36 6.113 6.113 0 01-1.29-2.17 8.412 8.412 0 01-.45-2.84c-.02-.959.119-1.915.41-2.83a5.872 5.872 0 011.28-2.17 5.68 5.68 0 012.07-1.36 7.682 7.682 0 012.76-.47 6.482 6.482 0 012.25.36 4.822 4.822 0 011.59.89c.372.324.68.714.91 1.15.188.327.294.694.31 1.07a1.18 1.18 0 01-.35.86 1.175 1.175 0 01-.86.36 1.072 1.072 0 01-.52-.14 1.204 1.204 0 01-.43-.38 10.825 10.825 0 00-.8-1.17 2.557 2.557 0 00-.88-.67 3.159 3.159 0 00-1.41-.27c-.54-.008-1.076.101-1.57.32a3.383 3.383 0 00-1.19.93c-.345.445-.603.95-.76 1.49a7.112 7.112 0 00-.26 2 5.55 5.55 0 001 3.58 3.435 3.435 0 002.83 1.25 5.6 5.6 0 001.66-.24 8.26 8.26 0 001.58-.69v-2.19h-2a2.06 2.06 0 01-1.07-.22.838.838 0 01-.37-.77.94.94 0 01.31-.73c.225-.199.519-.303.82-.29h2.89c.307-.007.613.027.91.1a1 1 0 01.59.44c.167.306.247.652.23 1M123.123 2.243h-2.35v3.63h2.28a6.132 6.132 0 001.54-.17 1.773 1.773 0 001-.57c.23-.33.333-.731.29-1.13a1.756 1.756 0 00-.27-1 1.63 1.63 0 00-.74-.63 5.11 5.11 0 00-1.75-.19v.06zm-1.46 5.49h-.89v4.27c.037.443-.091.885-.36 1.24a1.174 1.174 0 01-.91.4 1.149 1.149 0 01-1-.42 1.903 1.903 0 01-.33-1.22V1.872a1.766 1.766 0 01.37-1.26 1.596 1.596 0 011.24-.38h4.14c.491-.006.981.017 1.47.07.38.047.751.151 1.1.31.377.184.717.439 1 .75.308.323.543.708.69 1.13.161.438.242.902.24 1.37.041.857-.241 1.7-.79 2.36a4.474 4.474 0 01-2.41 1.25c.492.294.929.673 1.29 1.12a11.53 11.53 0 011.11 1.57c.284.485.534.99.75 1.51.136.29.227.6.27.92a.935.935 0 01-.16.52 1.138 1.138 0 01-.43.41 1.282 1.282 0 01-.63.15 1.238 1.238 0 01-.73-.22 1.813 1.813 0 01-.5-.53c-.14-.22-.33-.554-.57-1l-1-1.78a9.107 9.107 0 00-1-1.5 2.505 2.505 0 00-.88-.7 2.822 2.822 0 00-1.12-.19M130.452 8.002v-6.38c-.034-.435.09-.868.35-1.22a1.167 1.167 0 01.91-.4 1.206 1.206 0 01.94.4c.248.357.365.788.33 1.22v6.5c-.018.629.06 1.256.23 1.86.141.468.438.874.84 1.15a3.001 3.001 0 001.68.41 2.482 2.482 0 002.11-.83 4.27 4.27 0 00.62-2.53v-6.56c-.028-.436.1-.868.36-1.22a1.133 1.133 0 01.92-.4 1.18 1.18 0 01.93.4c.247.357.357.79.31 1.22v6.38a9.994 9.994 0 01-.28 2.59 4.07 4.07 0 01-1.09 1.82c-.448.45-.991.791-1.59 1a6.551 6.551 0 01-2.13.31 8.372 8.372 0 01-2.5-.33 4 4 0 01-1.7-1 4.112 4.112 0 01-1-1.77 9.238 9.238 0 01-.24-2.62M148.042 2.243h-1.72v4h1.72a4.932 4.932 0 001.5-.19c.371-.113.696-.34.93-.65.223-.352.332-.764.31-1.18a2.051 2.051 0 00-.49-1.43 3.122 3.122 0 00-2.25-.58v.03zm.62 5.97h-2.34v3.79c.032.436-.096.87-.36 1.22a1.143 1.143 0 01-.91.42 1.16 1.16 0 01-.92-.41 1.797 1.797 0 01-.35-1.21V1.873a1.72 1.72 0 01.38-1.27 1.72 1.72 0 011.23-.37h3.27c.75-.028 1.501.05 2.23.23.496.14.952.397 1.33.75.379.354.67.793.85 1.28.204.543.302 1.12.29 1.7a3.847 3.847 0 01-1.18 3.06 5.16 5.16 0 01-3.52 1M164.641 6.803a6.634 6.634 0 00-.44-2.52 3.466 3.466 0 00-1.28-1.61 3.379 3.379 0 00-1.9-.54 3.3 3.3 0 00-1.41.3c-.435.2-.815.502-1.11.88-.34.436-.592.936-.74 1.47a7.007 7.007 0 00-.27 2 7.08 7.08 0 00.27 2c.149.55.407 1.063.76 1.51a3.184 3.184 0 002.54 1.2 3.297 3.297 0 001.79-.51 3.546 3.546 0 001.31-1.59 6.487 6.487 0 00.48-2.64v.05zm-3.66-6.8a6.488 6.488 0 013.36.83 5.388 5.388 0 012.13 2.37 8.598 8.598 0 01.71 3.61 9.28 9.28 0 01-.39 2.79 6.061 6.061 0 01-1.18 2.17 5.136 5.136 0 01-1.94 1.41 6.829 6.829 0 01-2.64.49 6.724 6.724 0 01-2.64-.5 5.348 5.348 0 01-1.94-1.42 5.924 5.924 0 01-1.18-2.19 9.088 9.088 0 01-.4-2.76 9.225 9.225 0 01.41-2.8 6.005 6.005 0 011.21-2.16c.54-.601 1.211-1.07 1.96-1.37a6.693 6.693 0 012.53-.47M112.163 36.301h8l-4-11.65-4 11.65zm10.819 7.84l-1.28-3.54h-10.969l-1.28 3.62c-.313 1-.743 1.96-1.28 2.86a2 2 0 01-1.74.74 2.702 2.702 0 01-2.61-2.58c.007-.404.071-.804.19-1.19.12-.42.32-1 .6-1.72l6.88-18.33c.19-.52.42-1.16.7-1.89.231-.643.526-1.263.88-1.85a3.657 3.657 0 011.23-1.18 3.609 3.609 0 011.88-.45 3.5 3.5 0 013.12 1.62c.314.483.579.995.79 1.53.21.54.49 1.27.81 2.18l6.999 18.23c.44.948.72 1.961.83 3a2.535 2.535 0 01-.75 1.81 2.488 2.488 0 01-1.88.82c-.38.01-.758-.072-1.1-.24a2.417 2.417 0 01-.77-.65c-.271-.4-.496-.83-.67-1.28-.24-.57-.44-1.07-.61-1.51M133.462 47.821a2.746 2.746 0 01-2.041-.85 2.746 2.746 0 01-.749-2.08 2.882 2.882 0 01.79-2 2.574 2.574 0 011.94-.85 2.635 2.635 0 012 .84 3.069 3.069 0 010 4.18 2.68 2.68 0 01-1.91.78M137.212 22.372l6.08 18.94 6.11-19.07c.31-1 .55-1.7.71-2.09.172-.413.443-.777.789-1.06.427-.334.96-.5 1.5-.47.455-.002.902.123 1.29.36.395.243.716.589.93 1 .223.369.343.79.35 1.22-.005.31-.041.618-.11.92-.08.32-.17.64-.28 1-.11.36-.22.64-.33 1l-6.499 18.459c-.24.7-.47 1.37-.7 2a8.791 8.791 0 01-.81 1.68c-.329.46-.76.836-1.26 1.1a3.471 3.471 0 01-1.86.46 3.61 3.61 0 01-1.86-.45 3.649 3.649 0 01-1.22-1.19 8.503 8.503 0 01-.82-1.69c-.23-.63-.46-1.3-.7-2l-6.39-18.3c-.11-.34-.23-.67-.34-1a7.399 7.399 0 01-.29-1 4.58 4.58 0 01-.12-.94 2.574 2.574 0 01.75-1.79 2.47 2.47 0 011.89-.81 2.17 2.17 0 012 .9c.508.9.904 1.856 1.18 2.85M154.331 47.821a2.746 2.746 0 01-2.04-.85 2.734 2.734 0 01-.75-2.08 2.841 2.841 0 01.79-2 2.553 2.553 0 011.94-.85 2.643 2.643 0 012 .84 3.07 3.07 0 010 4.18 2.659 2.659 0 01-1.91.78M161.071 44.331v-22.24a3.908 3.908 0 01.75-2.61 2.487 2.487 0 011.95-.86 2.53 2.53 0 012 .86c.557.752.823 1.679.75 2.61v22.24a3.923 3.923 0 01-.75 2.62 2.525 2.525 0 01-2 .87 2.44 2.44 0 01-1.94-.88 3.912 3.912 0 01-.76-2.61M107.323 54.52l-.7.44a1.4 1.4 0 00-.37-.47.9.9 0 00-.48-.12.88.88 0 00-.6.21.668.668 0 00-.179.239.669.669 0 00-.061.292c0 .3.21.53.63.71l.57.25c.389.151.733.399 1 .72.21.29.322.64.32 1a1.907 1.907 0 01-.53 1.38 1.764 1.764 0 01-1.31.54 1.687 1.687 0 01-1.23-.46 2.172 2.172 0 01-.6-1.31l.87-.2c.01.256.082.507.21.73a.89.89 0 00.78.39.879.879 0 00.67-.28 1 1 0 00.27-.72c0-.109-.017-.217-.05-.32a.862.862 0 00-.14-.27 1.176 1.176 0 00-.26-.23 2.438 2.438 0 00-.37-.21l-.55-.24a1.664 1.664 0 01-1.18-1.52 1.492 1.492 0 01.124-.625c.087-.197.215-.373.376-.515a1.76 1.76 0 011.22-.46 1.722 1.722 0 011.55 1M113.493 54.48h-2.29v1.45h2.22v.85h-2.22v2.01h2.29v.86h-3.16v-6.02h3.16v.85z"/>
  <g>
    <path fill="#205875" d="M117.313 56.39h.27c.82 0 1.23-.33 1.23-1 0-.67-.4-.93-1.19-.93h-.31v1.93zm1.07.69l1.78 2.56h-1.06l-1.64-2.46h-.15v2.46h-.86v-6h1a2.45 2.45 0 011.64.45 1.673 1.673 0 01.55 1.31c.014.397-.11.786-.35 1.1a1.5 1.5 0 01-.92.59"/>
  </g>
  <path fill="#205875" d="M122.922 53.63l1.59 4.17 1.6-4.17h.95l-2.57 6.47-2.51-6.47h.94zM130.452 53.63h-.86v6.02h.86v-6.02z"/>
  <g>
    <path fill="#205875" d="M136.712 60.47l-1 1.2-.54-.3.77-1.24.77.34zm1.17-6.47v1a2.34 2.34 0 00-1.55-.66 1.928 1.928 0 00-1.49.67 2.32 2.32 0 00-.6 1.62c-.015.589.2 1.16.6 1.59a1.94 1.94 0 001.49.65c.268.009.534-.042.78-.15.131-.056.255-.126.37-.21l.4-.32v1.09a2.94 2.94 0 01-1.56.45 2.79 2.79 0 01-2.09-.9 3.066 3.066 0 01-.87-2.19 3.19 3.19 0 01.73-2.06 2.837 2.837 0 012.3-1.1 2.857 2.857 0 011.49.44M141.342 56.62a2.213 2.213 0 00.64 1.64 1.997 1.997 0 003 0 2.43 2.43 0 000-3.26 2.001 2.001 0 00-1.51-.65 2.002 2.002 0 00-1.49.65 2.22 2.22 0 00-.62 1.6l-.02.02zm-.85-.02a2.997 2.997 0 01.88-2.18 2.85 2.85 0 012.12-.91 2.76 2.76 0 012.1.92 3.203 3.203 0 010 4.41 2.91 2.91 0 01-4.13.1 3.004 3.004 0 01-1-2.34M152.602 54.52l-.71.44a1.297 1.297 0 00-.37-.47.852.852 0 00-.48-.12.838.838 0 00-.59.21.683.683 0 00-.24.53c0 .3.2.53.62.71l.57.25c.391.147.736.396 1 .72.21.292.322.642.32 1a1.9 1.9 0 01-.52 1.38 1.784 1.784 0 01-1.32.54 1.708 1.708 0 01-1.23-.46 2.167 2.167 0 01-.6-1.31l.88-.2c.01.257.082.508.21.73a.856.856 0 00.77.39.899.899 0 00.881-.614.994.994 0 00.059-.385 1.143 1.143 0 000-.32.72.72 0 00-.15-.27 1.15 1.15 0 00-.25-.23l-.37-.21-.55-.24a1.652 1.652 0 01-1.18-1.52 1.47 1.47 0 01.49-1.14c.335-.306.776-.47 1.23-.46a1.729 1.729 0 011.55 1M162.891 55.66h.07l.3-.26c.062-.054.119-.114.17-.18a.557.557 0 00.11-.35.522.522 0 00-.15-.39.559.559 0 00-.41-.15.504.504 0 00-.39.16.465.465 0 00-.16.37.81.81 0 00.2.52l.21.27v.06l.05-.05zm-.24 1.2h-.05a4.82 4.82 0 00-.72.62.761.761 0 00-.19.5c.004.26.108.507.29.69a.92.92 0 00.65.29c.46-.069.873-.317 1.15-.69l-1.13-1.41zm.69-.51l1 1.31c.11-.13.22-.25.32-.38s.19-.24.28-.37l.57.61-.28.37-.4.47 1.15 1.29h-1l-.57-.74a2.25 2.25 0 01-1.64.85 1.783 1.783 0 01-1.684-1.09 1.715 1.715 0 01-.126-.69 1.817 1.817 0 01.82-1.5l.38-.26.06-.05a1.893 1.893 0 01-.57-1.25 1.296 1.296 0 01.802-1.292c.167-.069.347-.102.528-.097a1.4 1.4 0 011 .37 1.258 1.258 0 01.38.94c.003.249-.071.493-.21.7a3.993 3.993 0 01-.75.76M107.323 65.67l-.7.43a1.255 1.255 0 00-.37-.46.82.82 0 00-.48-.13.88.88 0 00-.6.21.707.707 0 00-.24.54c0 .29.21.53.63.71l.57.24c.387.156.73.403 1 .72.207.293.319.642.32 1a1.882 1.882 0 01-.53 1.37 1.728 1.728 0 01-1.31.55 1.697 1.697 0 01-1.23-.47 2.17 2.17 0 01-.6-1.3l.87-.21c.01.26.082.514.21.74a.955.955 0 00.702.388.951.951 0 00.748-.287.998.998 0 00.27-.72c0-.109-.017-.217-.05-.32a.864.864 0 00-.14-.27 1.181 1.181 0 00-.26-.23 1.8 1.8 0 00-.37-.2l-.55-.25a1.645 1.645 0 01-1.18-1.52 1.47 1.47 0 01.5-1.13 1.74 1.74 0 012.77.55"/>
  </g>
  <path fill="#205875" d="M113.493 65.62h-2.29v1.45h2.22v.85h-2.22v2.01h2.29v.86h-3.16v-6.02h3.16v.85z"/>
  <g>
    <path fill="#205875" d="M119.393 67.66h2.36v.19a4.34 4.34 0 01-.15 1.2 2.487 2.487 0 01-.5.91 2.536 2.536 0 01-2 .94 2.697 2.697 0 01-2-.91 3.257 3.257 0 010-4.42 2.82 2.82 0 012.12-.92c.433-.002.861.097 1.25.29.426.236.801.556 1.1.94l-.62.62a2.058 2.058 0 00-1.71-1 1.997 1.997 0 00-1.53.66c-.204.217-.363.471-.467.75a2.232 2.232 0 00-.143.87 2.213 2.213 0 00.68 1.66c.366.375.866.59 1.39.6.426 0 .837-.16 1.15-.45.325-.275.529-.666.57-1.09h-1.43l-.07-.84zM125.533 64.77v3.63c-.028.392.055.784.24 1.13a1.234 1.234 0 001 .507 1.24 1.24 0 001-.507c.189-.345.273-.738.24-1.13v-3.63h.87v3.88a2.213 2.213 0 01-.57 1.56 2.09 2.09 0 01-3.1 0 2.209 2.209 0 01-.57-1.56v-3.88h.89zM132.983 67.53h.28c.82 0 1.23-.33 1.23-1 0-.67-.4-.93-1.2-.93h-.31v1.93zm1.08.69l1.77 2.57h-1l-1.64-2.46h-.21v2.46h-.86v-6h1a2.42 2.42 0 011.64.45 1.698 1.698 0 01.56 1.32c.006.395-.117.782-.35 1.1-.226.3-.553.506-.92.58"/>
  </g>
  <path fill="#205875" d="M141.492 68.47l-.85-2-.88 2h1.73zm.36.86h-2.45l-.64 1.46h-.93l2.83-6.4 2.73 6.4h-.94l-.6-1.46zM145.932 70.79v-6.43l4.17 4.59v-4.18h.87v6.38l-4.18-4.57v4.21h-.86z"/>
  <g>
    <path fill="#205875" d="M157.271 71.61l-1 1.2-.54-.3.77-1.24.77.34zm1.17-6.52v1.08a2.338 2.338 0 00-1.55-.66 1.887 1.887 0 00-1.48.67 2.284 2.284 0 00-.61 1.62 2.215 2.215 0 00.61 1.59 1.94 1.94 0 001.49.66c.266.01.53-.045.77-.16.131-.056.255-.127.37-.21.141-.097.275-.203.4-.32v1.1a2.997 2.997 0 01-1.56.44 2.813 2.813 0 01-2.09-.9 3.075 3.075 0 01-.86-2.19c.005-.73.259-1.435.72-2a2.813 2.813 0 012.3-1.11 2.857 2.857 0 011.49.44"/>
  </g>
  <path fill="#205875" d="M164.501 68.47l-.85-2-.89 2h1.74zm.35.86h-2.45l-.64 1.46h-.93l2.84-6.4 2.73 6.4h-.95l-.6-1.46z"/>
</svg>
