<svg xmlns="http://www.w3.org/2000/svg" width="282" height="18" fill="none" viewBox="0 0 282 18">
  <path stroke="#68A2D9" stroke-miterlimit="10" d="M115.881 9.81l-2.205-1.625m2.205 1.626c4.874 3.31 8.229 2.073 8.538 1.932h.027c-9.789 9.07-18.575 2.154-18.575 2.154l-5.85-4.508c1.39-1.098 2.684-2.095 3.514-2.686 1.456-1.035 4.615-1.707 7.77.088-.417-.428-.86-.838-1.329-1.23.182.073.286.123.286.123l3.414 2.501m2.205 1.626c4.874 3.31 8.229 2.073 8.538 1.948.958-.773 2.001-1.604 2.993-2.386a127.633 127.633 0 013.514-2.686c1.472-1.034 4.615-1.707 7.77.088-.417-.427-.86-.838-1.328-1.229-1.95-1.654-5.828-4.411-10.168-4.527-1.846-.05-3.881-.194-7.585 2.56l-5.939 4.606m29.596 1.626l-2.205-1.626m2.205 1.626c4.874 3.31 8.23 2.073 8.539 1.932h.027c-9.79 9.07-18.575 2.154-18.575 2.154l-5.851-4.508c1.39-1.098 2.684-2.095 3.514-2.686 1.456-1.035 4.615-1.707 7.77.088-.417-.428-.86-.838-1.328-1.23.181.073.282.123.282.123l3.417 2.501m2.205 1.626c4.874 3.31 8.23 2.073 8.539 1.948.958-.773 2-1.604 2.989-2.386a125.26 125.26 0 013.518-2.686c1.456-1.034 4.615-1.707 7.77.088 0 0-.487-.513-1.329-1.229-1.95-1.654-5.831-4.411-10.168-4.527-1.85-.05-3.881-.194-7.584 2.56l-5.94 4.606m29.597 1.626l-2.205-1.626m2.205 1.626c4.873 3.31 8.229 2.073 8.538 1.932h.027c-9.789 9.07-18.575 2.154-18.575 2.154l-5.858-4.524c1.398-1.104 2.703-2.095 3.522-2.67 1.456-1.035 4.615-1.707 7.77.088 0 0-.487-.513-1.329-1.23.182.073.282.123.282.123l3.418 2.501m2.205 1.626c4.873 3.31 8.229 2.073 8.538 1.948a427.98 427.98 0 012.989-2.386 125.26 125.26 0 013.518-2.686c1.456-1.034 4.615-1.707 7.77.088 0 0-.486-.513-1.332-1.229-1.95-1.654-5.828-4.411-10.168-4.527-1.846-.05-3.862-.194-7.581 2.567l-5.939 4.599M28.857 6.956S23.58 1.366 17.36 1.2c-1.846-.05-3.862-.19-7.584 2.567L3.103 8.94s-4.708 3.708-.035 6.697c0 0 3.56 2.585 7.785-.673 0 0 3.44-2.813 6.503-5.237m11.5-2.77c-3.155-1.794-6.313-1.119-7.77-.084m7.77.084l2.148 1.585 2.429 1.792c3.776 2.567 6.642 2.398 7.885 2.13.235-.047.463-.114.68-.2-9.79 9.07-18.575 2.153-18.575 2.153l-6.067-4.69m0 0c1.472-1.163 2.858-2.235 3.73-2.854m-3.73 2.854c1.472-1.163 2.858-2.229 3.73-2.854M58.639 8.37l2.186 1.622c4.874 3.314 8.241 2.073 8.538 1.939h.024C59.6 21 50.815 14.085 50.815 14.085l-5.836-4.527c1.395-1.098 2.688-2.095 3.518-2.686 1.456-1.035 4.615-1.71 7.77.084 0 0-.486-.512-1.328-1.228.181.071.282.122.282.122l3.417 2.52zm0 0l5.92-4.603C68.278 1.01 70.293 1.15 72.14 1.2c4.34.116 8.237 2.87 10.168 4.528.846.716 1.332 1.228 1.332 1.228-3.155-1.794-6.314-1.119-7.75-.084-.815.59-2.124 1.588-3.518 2.686-.989.781-2.031 1.613-2.99 2.382-.308.125-3.664 1.366-8.538-1.948L58.638 8.37zm150.898 1.025c-.988.785-2.031 1.616-2.989 2.386-.309.125-3.665 1.363-8.538-1.948l-2.205-1.62 5.939-4.602c3.704-2.76 5.735-2.617 7.592-2.567 4.337.116 8.238 2.87 10.168 4.527.842.716 1.329 1.229 1.329 1.229-3.163-1.795-6.322-1.12-7.778-.088m-3.518 2.683a124.087 124.087 0 013.518-2.683m-3.518 2.683c1.394-1.094 2.688-2.095 3.518-2.683m-3.518 2.683l5.855 4.534s8.785 6.915 18.575-2.155h-.027c-.309.135-3.665 1.373-8.539-1.941m-12.346-3.12c1.456-1.035 4.615-1.71 7.77.084 0 0-.486-.513-1.328-1.229.181.072.282.122.282.122l3.417 2.52 2.205 1.623m0 0l-2.205-1.62 5.94-4.605c3.718-2.761 5.734-2.617 7.58-2.567 4.341.116 8.218 2.87 10.168 4.527M225.4 9.833c4.874 3.31 8.23 2.073 8.539 1.948.957-.77 2-1.601 2.989-2.386m11.287-2.598s-.486-.513-1.332-1.229m1.332 1.229V6.8c-3.155-1.795-6.313-1.12-7.769-.088m7.769.085c-3.155-1.795-6.313-1.12-7.769-.085m6.437-1.144c.186.072.286.122.286.122l3.603 2.654 2.02 1.489m-15.864-.438a124.087 124.087 0 013.518-2.683m-3.518 2.683c1.394-1.094 2.687-2.095 3.518-2.683m-3.518 2.683l5.854 4.534s8.724 6.862 18.467-2.06l.104-.095s-3.448 1.539-8.561-1.941m0 0l-2.02-1.485 7.557-5.369s6.836-5.155 15.239 1.285l1.715 1.301.922.694v.003s-3.718-2.166-9.032 1.382m-14.381 2.189c5.117 3.476 8.561 1.938 8.561 1.938l-.104.094h.023l3.785-2.72 2.116-1.5m0 0c5.314-3.55 9.044-1.395 9.044-1.395l-.919-.698.097.041 3.514 2.814-.012.003s4.518 3.665.309 6.81c0 0-3.213 2.704-7.268-.504l-6.862-5.565 2.097-1.507zm-155.868-.87c-.417-.427-.86-.838-1.329-1.229-1.95-1.654-5.827-4.411-10.168-4.527-1.845-.05-3.877-.194-7.572 2.56l-6.18 4.781 2.434 1.785c3.78 2.567 6.646 2.402 7.885 2.136 1.128-.907 2.422-1.948 3.646-2.911 1.39-1.097 2.684-2.095 3.514-2.686 1.444-1.031 4.615-1.704 7.77.091zm86.743 3.036l-2.02-1.488-3.603-2.655s-.101-.05-.286-.122a18.273 18.273 0 011.332 1.229c-3.155-1.795-6.314-1.122-7.769-.088-.831.591-2.124 1.589-3.519 2.686l5.863 4.524s8.723 6.879 18.466-2.054l.105-.094s-3.445 1.539-8.569-1.938zm-141.8-2.855s-.487-.512-1.328-1.228C52.97 4.07 49.087 1.316 44.75 1.2c-1.85-.05-3.877-.19-7.584 2.567l-6.179 4.774 2.43 1.792c3.776 2.567 6.642 2.398 7.885 2.135a386.1 386.1 0 013.642-2.91 125.535 125.535 0 013.518-2.686c1.471-1.035 4.63-1.71 7.785.084zm31.968 3.036L86.01 8.37l-3.429-2.52s-.1-.05-.286-.122a18.398 18.398 0 011.333 1.228c-3.155-1.794-6.314-1.119-7.77-.084-.83.59-2.124 1.588-3.518 2.686l5.866 4.527S86.99 21 96.777 11.93h-.023c-.31.134-3.665 1.375-8.538-1.939z"/>
</svg>
