<svg xmlns="http://www.w3.org/2000/svg" width="17" height="20" fill="none" viewBox="0 0 17 20">
  <path fill="#205875" d="M5 11.122a.5.5 0 100 1 .5.5 0 000-1zM10.2 9.732v-1.4l-.45-2.11H5l-.46 2.11v1.4c.92.26 1.873.388 2.83.38.957.008 1.91-.12 2.83-.38"/>
  <path fill="#205875" d="M4.54 9.732v-1.4L5 6.222h4.75l.45 2.11v1.4c-.92.26-1.873.388-2.83.38-.957.008-1.91-.12-2.83-.38zm.46 2.39a.5.5 0 110-1 .5.5 0 010 1zM7.17 14.182h1.46v-.76H7.17v.76zm4.86 0h1.46v-.76H12l.03.76z"/>
  <path fill="#205875" d="M14.28 12.372a.3.3 0 01-.31.3h-.07a2 2 0 01.25.88v1c-.002.21-.057.417-.16.6v.42a.6.6 0 01-.6.6h-.49a.61.61 0 01-.59-.49h-4a.59.59 0 01-.58.49h-.5a.592.592 0 01-.59-.6v-.37a1.15 1.15 0 01-.16-.6v-1a1.48 1.48 0 01.07-.44h-.89v.32a.44.44 0 01-.44.44h-.4a.44.44 0 01-.44-.44v-.32h-.12a.28.28 0 01-.26-.33v-4.47h-.17v.44a.27.27 0 01-.27.27H3.2a.27.27 0 01-.27-.27v-.87a.27.27 0 01.27-.27h.36a.27.27 0 01.27.27v.07h.22l.45-2.11a.26.26 0 01.26-.22H10a.27.27 0 01.27.22l.42 2.11h.21v-.07a.28.28 0 01.28-.27h.36a.27.27 0 01.27.27v.87a.27.27 0 01-.27.27h-.36a.27.27 0 01-.28-.27v-.44h-.15v2.12h1.19c.263.01.512.117.7.3l.53.84H14a.31.31 0 01.31.3l-.03.45zm-10.85-9.1L8 1.782a.353.353 0 01.22.67l-4.57 1.55h-.11a.34.34 0 01-.33-.24.36.36 0 01.22-.45v-.04zm-1.35 1.19l-.22.07h-.11a.36.36 0 01-.355-.386.35.35 0 01.245-.304l.22-.07a.353.353 0 01.22.67v.02zm14.42-1.95L9.1.092a2 2 0 00-1.2 0L.51 2.512a.73.73 0 00-.51.7v6.93a9.85 9.85 0 007.84 9.64c.439.09.891.09 1.33 0a9.86 9.86 0 007.83-9.64v-6.93a.74.74 0 00-.51-.7"/>
  <path fill="#205875" d="M6.76 12.672h-.08a.29.29 0 01-.3-.3v-.37a.29.29 0 01.3-.3h.8l.52-.9a1.11 1.11 0 01.71-.3h2v-.19h-2a1.3 1.3 0 00-.85.35v.06l-.46.72h-.7a.491.491 0 00-.49.5v.42a.49.49 0 00.28.45 2.461 2.461 0 00-.09.29h.2a1.85 1.85 0 01.18-.44"/>
  <path fill="#205875" d="M9.73 12.122a.51.51 0 100-1.02.51.51 0 000 1.02"/>
  <path fill="#205875" d="M9.73 12.122a.5.5 0 11.51-.5.51.51 0 01-.51.5zm2.5-1a.63.63 0 00-.28-.1H8.76a.69.69 0 00-.3.11l-.72 1.12h5.17l-.68-1.13zM8.63 13.422H7.17v.76h1.46v-.76zM13.49 13.422h-1.46v.76h1.46v-.76z"/>
</svg>
