<svg xmlns="http://www.w3.org/2000/svg" width="17" height="20" fill="none" viewBox="0 0 17 20">
  <path fill="#205875" d="M8.52 5.617a1.85 1.85 0 00-1.86 1.84v1.4a.42.42 0 00.42.42h2.84a.41.41 0 00.41-.42v-1.37a1.86 1.86 0 00-1.81-1.87zM8.43 10.387a1.11 1.11 0 00-.905 1.563c.08.175.207.326.365.437a.48.48 0 01.19.52l-.17.71a.28.28 0 00.28.35h.68a.28.28 0 00.28-.35l-.15-.7a.47.47 0 01.19-.52 1.11 1.11 0 00-.72-2"/>
  <path fill="#205875" d="M12.12 13.967a1.11 1.11 0 01-1.12 1.11H6a1.12 1.12 0 01-1.12-1.11v-3.61A1.08 1.08 0 016 9.277v-1.82a2.54 2.54 0 115.07 0v1.82a1.08 1.08 0 011.08 1.08l-.03 3.61zm-8.58-9.89a.34.34 0 01-.33-.24.36.36 0 01.22-.45L8 1.857a.353.353 0 11.22.67l-4.57 1.55h-.11zm-1.46.5l-.22.07h-.11a.37.37 0 01-.34-.24.35.35 0 01.23-.45l.22-.07a.352.352 0 11.22.67v.02zm14.42-1.99L9.1.167a2 2 0 00-1.2 0L.51 2.587a.73.73 0 00-.51.7v6.93a9.85 9.85 0 007.84 9.64c.439.09.891.09 1.33 0a9.86 9.86 0 007.83-9.64v-6.93a.74.74 0 00-.51-.7"/>
  <path fill="#205875" d="M10.33 8.857a.41.41 0 01-.41.42H7.08a.42.42 0 01-.42-.42v-1.4a1.84 1.84 0 113.67 0v1.4zm-1.18 3.54a.47.47 0 00-.19.52l.17.7a.28.28 0 01-.28.35h-.68a.28.28 0 01-.28-.35l.17-.71a.48.48 0 00-.19-.52 1.09 1.09 0 01-.46-1 1.11 1.11 0 111.74 1"/>
</svg>
