<svg xmlns="http://www.w3.org/2000/svg" width="17" height="20" fill="none" viewBox="0 0 17 20">
  <path fill="#205875" d="M9.21 13.397a.71.71 0 01-.54.53.72.72 0 01-.84-.43.21.21 0 01.17-.28h.32a.16.16 0 00.18-.14v-.32a.21.21 0 01.28-.19.74.74 0 01.43.85v-.02zm-.71-1.63a1.46 1.46 0 101.385.884 1.45 1.45 0 00-1.385-.884"/>
  <path fill="#205875" d="M13.59 7.077a.31.31 0 01-.31.31h-2.6v.07a.29.29 0 01-.28.29h-.84a.69.69 0 00-.69.69v.88a.24.24 0 01-.24.24h-.25a.24.24 0 01-.24-.24v-.85a.69.69 0 00-.69-.69h-.84a.28.28 0 01-.28-.29v-.07h-2.6a.31.31 0 01-.31-.34v-.45a.3.3 0 01.31-.3h9.55a.3.3 0 01.31.3v.45zm-5.09 9.41a3.27 3.27 0 113.27-3.27 3.26 3.26 0 01-3.27 3.27zM3.21 3.797a.36.36 0 01.22-.45L8 1.857a.353.353 0 11.22.67l-4.57 1.55h-.11a.34.34 0 01-.33-.24v-.04zm-1.13.78l-.22.07h-.11a.36.36 0 01-.355-.386.35.35 0 01.245-.304l.22-.07a.352.352 0 11.22.67v.02zm14.42-1.99L9.1.167a2 2 0 00-1.2 0L.51 2.587a.73.73 0 00-.51.7v6.93a9.85 9.85 0 007.84 9.64c.439.09.891.09 1.33 0a9.86 9.86 0 007.83-9.64v-6.93a.74.74 0 00-.51-.7"/>
</svg>
