<svg xmlns="http://www.w3.org/2000/svg" width="17" height="20" fill="none" viewBox="0 0 17 20">
  <path fill="#205875" d="M12.4 15.605a5.88 5.88 0 01-3.9 1.47 5.92 5.92 0 01-3.9-1.45 1.25 1.25 0 010-1.87 5.82 5.82 0 013-1.36.42.42 0 01.46.51l-.68 1.82a.52.52 0 00.14.49l.48.47a.73.73 0 001 0l.48-.48a.49.49 0 00.14-.47c-.15-.59-.49-1.05-.69-1.83a.42.42 0 01.262-.486c.063-.024.131-.032.198-.024a5.82 5.82 0 013 1.36 1.24 1.24 0 010 1.87l.01-.02zM3.54 4.075a.34.34 0 01-.33-.24.36.36 0 01.22-.45L8 1.855a.353.353 0 01.22.67l-4.57 1.55h-.11zm7.93 4.1a3 3 0 11-6 0 3 3 0 016 0zm-9.39-3.64l-.22.07h-.11a.36.36 0 01-.355-.386.35.35 0 01.245-.304l.22-.07a.353.353 0 01.22.67v.02zm14.42-1.95L9.1.165a2 2 0 00-1.2 0L.51 2.585a.73.73 0 00-.51.7v6.93a9.85 9.85 0 007.84 9.64c.439.09.891.09 1.33 0a9.86 9.86 0 007.83-9.64v-6.93a.74.74 0 00-.51-.7"/>
</svg>
